<svg width="816" height="572" viewBox="0 0 816 572" fill="none" xmlns="http://www.w3.org/2000/svg">
<rect width="816" height="572" fill="white"/>
<path d="M545.805 228.463C538.081 210.577 527.512 194.724 513.691 180.902C499.87 167.081 484.016 156.512 466.13 148.789C447.837 141.065 427.919 137 408 137C387.675 137 368.163 141.065 349.463 148.789C331.577 156.512 315.724 167.081 301.902 180.902C288.081 194.724 277.512 210.577 269.789 228.463C262.065 247.163 258 266.675 258 287C258 307.325 262.065 326.837 269.789 345.537C277.512 363.423 288.081 379.276 301.902 393.098C315.724 406.919 331.577 417.488 349.463 425.211C367.756 432.935 387.675 437 408 437C428.325 437 447.837 432.935 466.537 425.211C484.423 417.488 500.276 406.919 514.098 393.098C527.919 379.276 538.488 363.423 546.211 345.537C553.935 327.244 558 307.325 558 287C557.594 266.675 553.935 247.163 545.805 228.463ZM358 272.772C364.098 248.789 386.049 230.902 412.065 230.902H516.13C522.634 243.911 527.106 257.732 528.732 272.772H358ZM528.732 300.821C527.106 315.455 522.634 329.683 516.13 342.691H412.065C386.049 342.691 364.504 324.805 358 300.821H528.732ZM321.821 200.821C344.992 177.65 375.48 165.049 408 165.049C440.52 165.049 471.008 177.65 493.772 200.821C494.585 201.634 494.992 202.041 495.805 202.854H412.065C389.707 202.854 368.569 211.39 352.715 227.244C340.114 239.846 331.984 255.293 329.138 272.366H286.862C290.114 245.537 302.309 220.333 321.821 200.821ZM408 408.545C375.48 408.545 344.992 395.943 321.821 372.772C302.309 353.26 290.114 328.057 286.862 300.821H329.138C331.984 317.894 340.114 333.748 352.715 345.943C368.569 361.797 389.707 370.333 412.065 370.333H496.211C495.398 371.146 494.992 371.959 494.179 372.366C471.008 395.943 440.52 408.545 408 408.545Z" fill="black"/>
</svg>
